<?xml version="1.0" standalone="no"?><!DOCTYPE svg PUBLIC "-//W3C//DTD SVG 1.1//EN" "http://www.w3.org/Graphics/SVG/1.1/DTD/svg11.dtd"><svg t="1720813888206" class="icon" viewBox="0 0 1024 1024" version="1.1" xmlns="http://www.w3.org/2000/svg" p-id="1860" xmlns:xlink="http://www.w3.org/1999/xlink" width="128" height="128"><path d="M931.08 253.88c-27.61 0-50 22.39-50 50v619.89h-780v-780h617.93c27.61 0 50-22.39 50-50s-22.39-50-50-50H92c-50.14 0-90.93 40.79-90.93 90.93v798.14c0 50.14 40.79 90.93 90.93 90.93h798.14c50.14 0 90.93-40.79 90.93-90.93V303.88c0.01-27.61-22.38-50-49.99-50z" fill="#231815" p-id="1861"></path><path d="M1002.97 20.18c-19.53-19.53-51.18-19.53-70.71 0l-310 310c-19.53 19.53-19.53 51.18 0 70.71 9.76 9.76 22.56 14.64 35.36 14.64s25.59-4.88 35.36-14.64l310-310c19.52-19.52 19.52-51.18-0.01-70.71zM502.76 507.52h-280c-27.61 0-50 22.39-50 50s22.39 50 50 50h280c27.61 0 50-22.39 50-50s-22.38-50-50-50zM172.76 746.65c0 27.61 22.39 50 50 50h400c27.61 0 50-22.39 50-50s-22.39-50-50-50h-400c-27.61 0-50 22.39-50 50z" fill="#231815" p-id="1862"></path></svg>