<?xml version="1.0" standalone="no"?><!DOCTYPE svg PUBLIC "-//W3C//DTD SVG 1.1//EN" "http://www.w3.org/Graphics/SVG/1.1/DTD/svg11.dtd"><svg t="1695070997855" class="icon" viewBox="0 0 1024 1024" version="1.1" xmlns="http://www.w3.org/2000/svg" p-id="1644" xmlns:xlink="http://www.w3.org/1999/xlink" width="200" height="200"><path d="M493.7 649.1H288c-22.1 0-40-17.9-40-40s17.9-40 40-40h205.7c22.1 0 40 17.9 40 40 0 22-17.9 40-40 40zM736.4 808.1H288c-22.1 0-40-17.9-40-40s17.9-40 40-40h448.5c22.1 0 40 17.9 40 40-0.1 22.1-18 40-40.1 40z" p-id="1645"></path><path d="M804 66.3H220.4c-66.2 0-120 53.8-120 120v651.3c0 66.2 53.8 120 120 120H804c66.2 0 120-53.8 120-120V186.3c0-66.2-53.8-120-120-120z m0 80c22.1 0 40 17.9 40 40v243.5L771.8 385c-8.1-5-17.3-7.6-26.4-7.6-9.1 0-18.2 2.5-26.4 7.6l-72.2 44.8V146.3H804z m0 731.3H220.4c-22.1 0-40-17.9-40-40V186.3c0-22.1 17.9-40 40-40h346.5v328.4c0 19.9 10.8 38.4 28.3 48.1s38.8 9.2 55.7-1.3l94.6-58.7 94.6 58.7c1.3 0.8 2.6 1.6 4 2.3v313.9c-0.1 21.9-18 39.9-40.1 39.9z" p-id="1646"></path></svg>