<?xml version="1.0" standalone="no"?><!DOCTYPE svg PUBLIC "-//W3C//DTD SVG 1.1//EN" "http://www.w3.org/Graphics/SVG/1.1/DTD/svg11.dtd"><svg t="1720814068904" class="icon" viewBox="0 0 1024 1024" version="1.1" xmlns="http://www.w3.org/2000/svg" p-id="3040" xmlns:xlink="http://www.w3.org/1999/xlink" width="128" height="128"><path d="M831.61573 722.809824L662.172256 153.49235a41.290845 41.290845 0 0 0-0.522068-1.669755c-22.198683-66.587419-94.559054-118.742459-164.749175-118.742459h-21.573065c-71.773584 0-141.398491 54.342548-158.989167 123.907051L153.751227 735.39555c-43.581904 22.716436-73.21035 66.846296-73.21035 117.461019 0 73.753991 62.907055 133.752997 140.224916 133.752996h578.158116c77.322176 0 140.224916-59.999006 140.224916-133.752996 0-63.019235-45.933368-115.955219-107.533095-130.046745zM343.149785 460.226804l258.898341-130.607644 39.992147 134.361357-355.800231 198.705178 56.909743-202.458891z m77.706177-276.553737c5.388951-21.961379 31.859101-42.723296 54.471986-42.723296h21.573065c24.144573 0 54.131132 21.452255 62.186514 44.328332l11.696915 39.301808L382.719099 319.453932l37.679514-134.037761c0.163955-0.578158 0.314967-1.160631 0.457349-1.743104z m378.067947 695.071178h-578.158116c-17.538901 0-32.359596-11.856556-32.359596-25.887676s14.820695-25.887677 32.359596-25.887677h310.652122c29.779458 0 53.93266-24.148888 53.93266-53.93266 0-29.779458-24.153202-53.93266-53.93266-53.93266h-124.951187l267.109049-149.173423 44.397366 149.173423h-20.442635c-29.779458 0-53.93266 24.153202-53.93266 53.93266 0 29.783772 24.153202 53.93266 53.93266 53.93266h101.393401c17.534586 0 32.359596 11.856556 32.359596 25.887677s-14.82501 25.887677-32.359596 25.887676z" p-id="3041"></path></svg>