<?xml version="1.0" standalone="no"?><!DOCTYPE svg PUBLIC "-//W3C//DTD SVG 1.1//EN" "http://www.w3.org/Graphics/SVG/1.1/DTD/svg11.dtd"><svg t="1695071017974" class="icon" viewBox="0 0 1024 1024" version="1.1" xmlns="http://www.w3.org/2000/svg" p-id="2255" xmlns:xlink="http://www.w3.org/1999/xlink" width="200" height="200"><path d="M820.5 322.4c-10.1-10.1-23.6-15.7-37.9-15.7-14.3 0-27.8 5.6-37.9 15.7L402.2 664.9C391 676.1 384 691 382.7 706.8l-10.8 128.1c-1.4 16.2 4.4 32.1 15.9 43.6 10.4 10.4 24.4 16.1 38.9 16.1 1.5 0 3.1-0.1 4.7-0.2l128.2-10.8c15.8-1.3 30.7-8.2 41.9-19.4L944 521.7c20.9-20.9 20.9-54.9 0-75.8L820.5 322.4zM548.3 804.3l-94.2 7.9 7.9-94.1 215.8-215.8 86.2 86.2-215.7 215.8zM820.6 532l-86.2-86.2 48.2-48.2 86.2 86.2-48.2 48.2z" p-id="2256"></path><path d="M313.2 851.4H192.4c-5.2-7.7-11.8-14.3-19.5-19.4V193c7.8-5.2 14.6-11.8 19.8-19.6h640.9c4.8 6.8 10.7 12.8 17.5 17.6v103.9c0 22.1 17.9 40 40 40s40-17.9 40-40v-104c18.1-12.7 30-33.6 30-57.4 0-38.7-31.3-70-70-70-23.7 0-44.7 11.8-57.3 29.9H191.1c-12.7-17.5-33.3-28.9-56.6-28.9-38.7 0-70 31.3-70 70 0 23.1 11.2 43.5 28.4 56.3v643.1c-17.4 12.7-28.6 33.3-28.6 56.5 0 38.7 31.3 70 70 70 23.3 0 44-11.4 56.7-29h122.2c22.1 0 40-17.9 40-40s-17.9-40-40-40z" p-id="2257"></path></svg>