<?xml version="1.0" standalone="no"?><!DOCTYPE svg PUBLIC "-//W3C//DTD SVG 1.1//EN" "http://www.w3.org/Graphics/SVG/1.1/DTD/svg11.dtd"><svg t="1720813905412" class="icon" viewBox="0 0 1024 1024" version="1.1" xmlns="http://www.w3.org/2000/svg" p-id="2182" xmlns:xlink="http://www.w3.org/1999/xlink" width="128" height="128"><path d="M981.9 313.47c-25.69-60.74-62.46-115.27-109.28-162.09C825.8 104.56 771.27 67.79 710.53 42.1 647.62 15.49 580.83 2 512 2c-68.83 0-135.62 13.49-198.53 40.1-60.74 25.69-115.27 62.46-162.09 109.28C104.56 198.2 67.79 252.73 42.1 313.47 15.49 376.38 2 443.17 2 512c0 68.83 13.49 135.62 40.1 198.53 25.69 60.74 62.46 115.27 109.28 162.09 46.82 46.82 101.36 83.59 162.09 109.28 62.91 26.61 129.7 40.1 198.53 40.1 68.83 0 135.62-13.49 198.53-40.1 60.74-25.69 115.27-62.46 162.09-109.28 46.82-46.82 83.59-101.36 109.28-162.09 26.61-62.91 40.1-129.7 40.1-198.53 0-68.83-13.49-135.62-40.1-198.53zM512 922c-226.07 0-410-183.92-410-410 0-226.07 183.93-410 410-410 226.08 0 410 183.93 410 410 0 226.08-183.92 410-410 410z" fill="#231815" p-id="2183"></path><path d="M771.86 427.64c-0.03-0.44-0.06-0.89-0.1-1.33-0.05-0.48-0.11-0.95-0.17-1.42-0.04-0.33-0.08-0.66-0.13-0.99-0.08-0.52-0.17-1.03-0.26-1.54l-0.15-0.85c-0.1-0.52-0.22-1.04-0.34-1.56-0.06-0.27-0.12-0.55-0.19-0.82-0.12-0.5-0.26-1-0.4-1.5-0.08-0.29-0.16-0.58-0.25-0.87-0.14-0.46-0.29-0.92-0.44-1.38-0.11-0.33-0.21-0.65-0.33-0.98-0.15-0.41-0.3-0.81-0.46-1.22-0.14-0.37-0.28-0.74-0.43-1.1-0.15-0.35-0.3-0.7-0.46-1.05-0.18-0.41-0.36-0.82-0.55-1.22-0.14-0.3-0.29-0.59-0.44-0.89-0.22-0.44-0.44-0.89-0.68-1.32-0.14-0.25-0.28-0.5-0.42-0.76-0.26-0.46-0.52-0.92-0.79-1.38-0.14-0.23-0.28-0.45-0.42-0.68-0.29-0.46-0.58-0.93-0.89-1.38-0.15-0.22-0.31-0.44-0.46-0.66-0.31-0.44-0.61-0.88-0.94-1.32-0.18-0.25-0.38-0.49-0.57-0.73-0.31-0.4-0.61-0.79-0.93-1.18-0.26-0.32-0.53-0.62-0.8-0.93-0.26-0.31-0.52-0.61-0.79-0.91-0.53-0.58-1.07-1.15-1.62-1.7-0.03-0.03-0.05-0.06-0.08-0.09L644.22 282.73c-19.53-19.53-51.18-19.53-70.71 0-19.53 19.53-19.53 51.18 0 70.71l27.78 27.78H302c-27.61 0-50 22.39-50 50s22.39 50 50 50h420c0.82 0 1.65-0.02 2.47-0.06 0.4-0.02 0.79-0.06 1.18-0.08 0.42-0.03 0.84-0.05 1.25-0.1 0.5-0.05 0.99-0.12 1.49-0.18 0.31-0.04 0.62-0.07 0.92-0.12 0.54-0.08 1.07-0.17 1.6-0.27 0.26-0.05 0.53-0.09 0.79-0.14 0.54-0.11 1.08-0.23 1.62-0.35 0.25-0.06 0.51-0.11 0.76-0.18 0.52-0.13 1.04-0.27 1.55-0.42 0.27-0.08 0.55-0.15 0.82-0.23 0.48-0.15 0.96-0.3 1.43-0.46 0.31-0.1 0.62-0.2 0.92-0.31 0.43-0.15 0.85-0.32 1.27-0.48 0.35-0.14 0.7-0.27 1.05-0.41 0.37-0.15 0.73-0.32 1.1-0.48 0.39-0.17 0.79-0.35 1.18-0.53 0.31-0.15 0.62-0.31 0.93-0.46 0.43-0.21 0.86-0.43 1.28-0.66 0.27-0.14 0.53-0.3 0.8-0.44 0.45-0.25 0.9-0.5 1.34-0.77 0.24-0.14 0.47-0.3 0.71-0.45 0.45-0.28 0.91-0.57 1.35-0.87l0.69-0.48c0.43-0.3 0.87-0.6 1.3-0.92 0.25-0.19 0.5-0.39 0.75-0.58 0.39-0.3 0.78-0.6 1.16-0.91 0.32-0.26 0.63-0.54 0.94-0.81 0.3-0.26 0.61-0.51 0.91-0.78 0.58-0.53 1.15-1.07 1.7-1.62 0.03-0.03 0.06-0.05 0.09-0.08s0.05-0.06 0.08-0.09c0.55-0.56 1.09-1.12 1.62-1.7 0.27-0.3 0.53-0.61 0.79-0.91 0.27-0.31 0.54-0.62 0.8-0.93 0.32-0.39 0.62-0.79 0.93-1.18 0.19-0.24 0.38-0.48 0.57-0.73 0.32-0.43 0.63-0.88 0.94-1.32 0.15-0.22 0.31-0.44 0.46-0.66 0.31-0.46 0.6-0.92 0.89-1.38 0.14-0.23 0.29-0.45 0.42-0.68 0.27-0.46 0.54-0.92 0.79-1.38 0.14-0.25 0.29-0.5 0.42-0.76 0.23-0.44 0.46-0.88 0.68-1.32 0.15-0.29 0.3-0.59 0.44-0.89 0.19-0.41 0.37-0.81 0.55-1.22 0.15-0.35 0.31-0.7 0.46-1.05 0.15-0.36 0.29-0.73 0.43-1.1 0.16-0.4 0.31-0.81 0.46-1.22 0.12-0.32 0.22-0.65 0.33-0.98 0.15-0.46 0.3-0.91 0.44-1.38 0.09-0.29 0.17-0.58 0.25-0.87 0.14-0.5 0.28-0.99 0.4-1.5 0.07-0.27 0.13-0.55 0.19-0.82 0.12-0.52 0.24-1.04 0.34-1.56 0.06-0.28 0.1-0.57 0.15-0.85 0.09-0.51 0.18-1.03 0.26-1.54 0.05-0.33 0.08-0.66 0.13-0.99 0.06-0.47 0.12-0.95 0.17-1.42 0.04-0.44 0.07-0.89 0.1-1.33 0.03-0.37 0.06-0.73 0.08-1.11 0.08-1.65 0.08-3.31 0-4.96 0-0.39-0.04-0.76-0.06-1.12zM722 542.78H302c-0.2 0-0.4 0.01-0.61 0.02-0.62 0.01-1.23 0.02-1.85 0.05-0.47 0.02-0.93 0.06-1.39 0.1-0.35 0.03-0.7 0.05-1.04 0.08-0.54 0.05-1.07 0.12-1.61 0.19-0.27 0.03-0.53 0.06-0.8 0.1-0.57 0.08-1.13 0.18-1.69 0.28-0.24 0.04-0.47 0.08-0.71 0.13-0.56 0.11-1.12 0.24-1.68 0.37-0.24 0.05-0.47 0.11-0.71 0.16-0.54 0.13-1.07 0.28-1.6 0.43-0.26 0.07-0.52 0.14-0.78 0.22-0.49 0.15-0.98 0.31-1.46 0.47-0.3 0.1-0.59 0.2-0.89 0.3-0.44 0.16-0.87 0.32-1.3 0.49-0.34 0.13-0.68 0.26-1.02 0.4-0.38 0.16-0.75 0.32-1.12 0.49-0.39 0.17-0.77 0.34-1.15 0.52-0.32 0.15-0.64 0.31-0.95 0.47-0.42 0.21-0.84 0.42-1.26 0.65l-0.81 0.45c-0.44 0.25-0.89 0.5-1.33 0.76-0.25 0.15-0.49 0.3-0.73 0.45-0.45 0.28-0.89 0.56-1.33 0.86-0.24 0.16-0.47 0.33-0.71 0.49-0.43 0.3-0.86 0.6-1.28 0.91-0.26 0.19-0.51 0.4-0.77 0.6-0.38 0.3-0.77 0.59-1.14 0.9-0.33 0.27-0.64 0.55-0.96 0.83-0.3 0.26-0.59 0.5-0.89 0.77-0.58 0.53-1.15 1.07-1.71 1.62-0.03 0.03-0.06 0.05-0.08 0.08-0.03 0.03-0.05 0.06-0.08 0.09-0.55 0.56-1.09 1.12-1.62 1.7-0.27 0.3-0.53 0.61-0.79 0.91-0.27 0.31-0.54 0.62-0.8 0.93-0.32 0.39-0.62 0.79-0.93 1.18-0.19 0.24-0.38 0.48-0.57 0.73-0.32 0.43-0.63 0.88-0.94 1.32-0.15 0.22-0.31 0.44-0.47 0.67-0.31 0.45-0.6 0.92-0.88 1.38-0.14 0.23-0.29 0.45-0.43 0.68-0.27 0.46-0.53 0.92-0.79 1.38-0.14 0.25-0.29 0.5-0.42 0.76-0.23 0.44-0.46 0.88-0.68 1.32-0.15 0.29-0.3 0.59-0.44 0.89-0.19 0.41-0.37 0.81-0.55 1.22-0.15 0.35-0.31 0.7-0.46 1.05-0.15 0.36-0.29 0.73-0.43 1.1-0.16 0.41-0.32 0.81-0.46 1.23-0.11 0.32-0.22 0.64-0.33 0.97-0.15 0.46-0.31 0.92-0.45 1.38-0.09 0.29-0.16 0.58-0.25 0.87-0.14 0.5-0.28 1-0.41 1.51-0.07 0.27-0.12 0.54-0.19 0.81-0.12 0.52-0.24 1.05-0.34 1.58-0.05 0.27-0.1 0.55-0.15 0.83-0.09 0.52-0.19 1.04-0.26 1.57-0.05 0.32-0.08 0.64-0.12 0.96-0.06 0.48-0.13 0.97-0.17 1.45-0.04 0.42-0.07 0.85-0.1 1.27-0.03 0.39-0.06 0.77-0.08 1.16-0.08 1.65-0.08 3.3 0 4.95 0.02 0.4 0.06 0.79 0.08 1.18 0.03 0.42 0.05 0.83 0.1 1.25 0.05 0.5 0.11 0.99 0.18 1.48 0.04 0.31 0.07 0.62 0.12 0.93 0.08 0.53 0.17 1.06 0.27 1.59 0.05 0.27 0.09 0.54 0.14 0.8 0.11 0.54 0.23 1.07 0.35 1.6l0.18 0.79c0.13 0.51 0.27 1.02 0.41 1.53 0.08 0.28 0.15 0.56 0.24 0.84 0.14 0.47 0.3 0.94 0.45 1.41 0.11 0.31 0.21 0.63 0.32 0.94 0.15 0.42 0.31 0.84 0.47 1.25 0.14 0.36 0.27 0.71 0.42 1.07 0.15 0.36 0.31 0.72 0.47 1.08 0.18 0.4 0.35 0.8 0.54 1.19 0.15 0.31 0.3 0.61 0.46 0.92 0.22 0.43 0.43 0.86 0.66 1.29 0.14 0.27 0.29 0.53 0.44 0.79 0.25 0.45 0.51 0.9 0.77 1.34l0.45 0.72c0.28 0.45 0.56 0.9 0.86 1.34 0.16 0.24 0.33 0.47 0.49 0.71 0.3 0.43 0.6 0.86 0.91 1.28 0.2 0.26 0.4 0.52 0.61 0.78 0.29 0.38 0.58 0.76 0.89 1.13 0.28 0.34 0.57 0.67 0.86 1 0.24 0.28 0.48 0.57 0.73 0.84 0.56 0.61 1.13 1.22 1.71 1.8l113.13 113.13c9.76 9.76 22.56 14.64 35.36 14.64s25.59-4.88 35.36-14.64c19.53-19.53 19.53-51.18 0-70.71l-27.78-27.78H722c27.61 0 50-22.39 50-50s-22.39-50-50-50z" fill="#231815" p-id="2184"></path></svg>