<?xml version="1.0" standalone="no"?><!DOCTYPE svg PUBLIC "-//W3C//DTD SVG 1.1//EN" "http://www.w3.org/Graphics/SVG/1.1/DTD/svg11.dtd"><svg t="1695070930866" class="icon" viewBox="0 0 1024 1024" version="1.1" xmlns="http://www.w3.org/2000/svg" p-id="1168" xmlns:xlink="http://www.w3.org/1999/xlink" width="200" height="200"><path d="M959.2 513.7c0-14.6-7.9-28-20.6-35L867 439.1l71.5-39.5c12.7-7 20.6-20.5 20.6-35s-7.9-28-20.6-35l-407-225c-12-6.7-26.7-6.7-38.7 0l-407 225c-12.7 7-20.6 20.5-20.6 35s7.9 28 20.6 35l71.5 39.5-71.5 39.5c-12.7 7-20.6 20.5-20.6 35s7.9 28 20.6 35l71.5 39.5-71.5 39.5c-12.7 7-20.6 20.5-20.6 35s7.9 28 20.6 35l407 225c6 3.3 12.7 5 19.4 5s13.3-1.7 19.4-5l407-225c12.7-7 20.6-20.5 20.6-35s-7.9-28-20.6-35L867 588.2l71.5-39.5c12.8-7.1 20.7-20.5 20.7-35zM765 553.2L512.2 693 259.4 553.2l-71.5-39.5 52.2-28.8 115.5 63.8 137.3 75.9c6 3.3 12.7 5 19.4 5 6.7 0 13.3-1.7 19.4-5L669 548.7l115.5-63.8 52.2 28.8-71.7 39.5zM512.2 185.3l324.3 179.3-71.5 39.5-134.8 74.5-118 65.2-117.9-65.2-134.8-74.5-71.5-39.5 324.2-179.3z m0 656.8L187.9 662.8l52.2-28.8 252.8 139.8c12 6.7 26.7 6.7 38.7 0L784.4 634l52.2 28.8-324.4 179.3z" p-id="1169" fill="#9589d6"></path></svg>