<?xml version="1.0" standalone="no"?><!DOCTYPE svg PUBLIC "-//W3C//DTD SVG 1.1//EN" "http://www.w3.org/Graphics/SVG/1.1/DTD/svg11.dtd"><svg t="1720813749862" class="icon" viewBox="0 0 1024 1024" version="1.1" xmlns="http://www.w3.org/2000/svg" p-id="944" xmlns:xlink="http://www.w3.org/1999/xlink" width="128" height="128"><path d="M512 170.666667a341.333333 341.333333 0 1 0 0 682.666666 341.333333 341.333333 0 0 0 0-682.666666zM85.333333 512C85.333333 276.352 276.352 85.333333 512 85.333333s426.666667 191.018667 426.666667 426.666667-191.018667 426.666667-426.666667 426.666667S85.333333 747.648 85.333333 512z m268.8-115.2a42.666667 42.666667 0 0 1 42.666667-42.666667h3.84a42.666667 42.666667 0 0 1 42.666667 42.666667v3.072a42.666667 42.666667 0 0 1-42.666667 42.666667H396.8a42.666667 42.666667 0 0 1-42.666667-42.666667V396.8z m230.4 0a42.666667 42.666667 0 0 1 42.666667-42.666667h3.413333a42.666667 42.666667 0 0 1 42.666667 42.666667v3.072a42.666667 42.666667 0 0 1-42.666667 42.666667h-3.413333a42.666667 42.666667 0 0 1-42.666667-42.666667V396.8z m83.029334 195.669333a42.666667 42.666667 0 0 1 13.824 58.752C646.144 708.181333 583.722667 746.666667 512 746.666667s-134.144-38.485333-169.386667-95.445334a42.666667 42.666667 0 1 1 72.533334-44.928c20.778667 33.536 56.661333 55.04 96.853333 55.04s76.074667-21.504 96.853333-55.04a42.666667 42.666667 0 0 1 58.709334-13.824z" p-id="945" fill="#daa3bc"></path></svg>