<?xml version="1.0" standalone="no"?><!DOCTYPE svg PUBLIC "-//W3C//DTD SVG 1.1//EN" "http://www.w3.org/Graphics/SVG/1.1/DTD/svg11.dtd"><svg t="1695071013589" class="icon" viewBox="0 0 1024 1024" version="1.1" xmlns="http://www.w3.org/2000/svg" p-id="2102" xmlns:xlink="http://www.w3.org/1999/xlink" width="200" height="200"><path d="M920 472h-62.9c-3.7-32.8-12.1-64.7-25-95.2-17.5-41.4-42.5-78.5-74.4-110.4-31.9-31.9-69-56.9-110.4-74.4-30.5-12.9-62.4-21.3-95.2-25v-63c0-22.1-17.9-40-40-40s-40 17.9-40 40v63c-32.8 3.7-64.7 12.1-95.2 25-41.4 17.5-78.5 42.5-110.4 74.4-31.9 31.9-56.9 69-74.4 110.4-13 30.8-21.4 63-25.1 96.1h-62.7c-22.1 0-40 17.9-40 40s17.9 40 40 40H167c3.8 32.5 12.1 64.1 24.9 94.3 17.5 41.4 42.5 78.5 74.4 110.4 31.9 31.9 69 56.9 110.4 74.4 30.6 12.9 62.5 21.3 95.3 25v62.5c0 22.1 17.9 40 40 40s40-17.9 40-40V857c32.8-3.7 64.7-12.1 95.2-25 41.4-17.5 78.5-42.5 110.4-74.4 31.9-31.9 56.9-69 74.4-110.4 12.9-30.6 21.3-62.5 25-95.2h63c22.1 0 40-17.9 40-40s-17.9-40-40-40zM512 779.4c-147.4 0-267.4-119.9-267.4-267.4s120-267.4 267.4-267.4c147.4 0 267.4 119.9 267.4 267.4S659.4 779.4 512 779.4z" p-id="2103"></path><path d="M512 512m-150 0a150 150 0 1 0 300 0 150 150 0 1 0-300 0Z" p-id="2104"></path></svg>