<?xml version="1.0" standalone="no"?><!DOCTYPE svg PUBLIC "-//W3C//DTD SVG 1.1//EN" "http://www.w3.org/Graphics/SVG/1.1/DTD/svg11.dtd"><svg t="1695071024376" class="icon" viewBox="0 0 1024 1024" version="1.1" xmlns="http://www.w3.org/2000/svg" p-id="2408" xmlns:xlink="http://www.w3.org/1999/xlink" width="200" height="200"><path d="M790.5 348.5c46.8-46.8 46.8-122.9 0-169.7l-77.7-77.7c-46.8-46.8-122.9-46.8-169.7 0l-443 443C77.4 566.7 65 596.9 65 628.9c0 32.1 12.5 62.2 35.1 84.9l77.7 77.7c23.4 23.4 54.1 35.1 84.9 35.1 30.7 0 61.5-11.7 84.9-35.1l442.9-443zM234.4 734.9l-77.7-77.7c-7.6-7.6-11.7-17.6-11.7-28.3s4.2-20.7 11.7-28.3l443-443c15.6-15.6 41-15.6 56.6 0l77.7 77.7c15.6 15.6 15.6 41 0 56.6l-36 35.9-64.5-65.5c-15.5-15.7-40.8-15.9-56.6-0.4-15.7 15.5-15.9 40.8-0.4 56.6l64.9 65.9-50.7 50.7-28.2-28.9c-15.4-15.8-40.8-16.1-56.6-0.7s-16.1 40.8-0.7 56.6l28.9 29.6-51 51-64.5-65.5c-15.5-15.7-40.8-15.9-56.6-0.4-15.7 15.5-15.9 40.8-0.4 56.6l64.9 65.9-50.5 50.6-28.2-28.9c-15.4-15.8-40.8-16.1-56.6-0.7-15.8 15.4-16.1 40.8-0.7 56.6l28.9 29.6-28.4 28.4c-15.7 15.6-41 15.6-56.6 0zM948.2 335.3c-15.6-15.6-40.9-15.6-56.6 0L336.8 890.2c-15.6 15.6-15.6 40.9 0 56.6 7.8 7.8 18 11.7 28.3 11.7s20.5-3.9 28.3-11.7l554.9-554.9c15.5-15.6 15.5-40.9-0.1-56.6z" p-id="2409"></path></svg>