<?xml version="1.0" standalone="no"?><!DOCTYPE svg PUBLIC "-//W3C//DTD SVG 1.1//EN" "http://www.w3.org/Graphics/SVG/1.1/DTD/svg11.dtd"><svg t="1720813893761" class="icon" viewBox="0 0 1024 1024" version="1.1" xmlns="http://www.w3.org/2000/svg" p-id="2021" xmlns:xlink="http://www.w3.org/1999/xlink" width="128" height="128"><path d="M825.34 358.71V63.94c0-27.61-22.39-50-50-50h-620c-27.61 0-50 22.39-50 50v807.88c0 27.61 22.39 50 50 50h106.19c13.25 0 25.96-5.26 35.33-14.62l513.81-513.11a49.974 49.974 0 0 0 14.67-35.38z m-100-20.73l-484.5 483.84h-35.5V113.94h520v224.04z" fill="#231815" p-id="2022"></path><path d="M290.34 259.99h350c27.61 0 50-22.39 50-50s-22.39-50-50-50h-350c-27.61 0-50 22.39-50 50s22.39 50 50 50zM290.34 394H518.6c27.61 0 50-22.39 50-50s-22.39-50-50-50H290.34c-27.61 0-50 22.39-50 50s22.39 50 50 50zM290.34 528h152.17c27.61 0 50-22.39 50-50s-22.39-50-50-50H290.34c-27.61 0-50 22.39-50 50s22.39 50 50 50zM900.01 568.41l-83.7-83.7c-19.53-19.53-51.18-19.52-70.71 0L389.3 841a50.01 50.01 0 0 0-14.17 42.21l10.18 73.52c3.07 22.17 20.5 39.6 42.67 42.67l73.52 10.18c2.29 0.32 4.58 0.47 6.86 0.47 13.17 0 25.91-5.2 35.35-14.64l356.3-356.3c19.53-19.52 19.53-51.17 0-70.7zM490.59 907.12l-11.41-1.58-1.58-11.41 303.36-303.36 12.99 12.99-303.36 303.36z" fill="#231815" p-id="2023"></path></svg>