<?xml version="1.0" standalone="no"?><!DOCTYPE svg PUBLIC "-//W3C//DTD SVG 1.1//EN" "http://www.w3.org/Graphics/SVG/1.1/DTD/svg11.dtd"><svg t="1688836357775" class="icon" viewBox="0 0 1024 1024" version="1.1" xmlns="http://www.w3.org/2000/svg" p-id="2893" xmlns:xlink="http://www.w3.org/1999/xlink" width="128" height="128"><path d="M933.717333 349.824c-18.346667-87.509333-85.162667-155.776-170.538666-174.250667-85.376-18.474667-173.354667 16.256-224.597334 88.746667l-26.581333 37.546667-26.538667-37.504-6.186666-8.32c-50.730667-65.194667-132.565333-96.853333-213.034667-81.493334-83.882667 15.872-151.338667 79.872-173.354667 164.394667-22.058667 84.48 5.205333 174.506667 70.101334 231.253333l0.341333 0.341334 295.296 266.026666 4.992 4.096a64.341333 64.341333 0 0 0 80.085333-2.688l304.426667-257.365333 7.978667-6.229333c64.938667-53.589333 95.232-140.373333 77.610666-224.554667z m-131.882666 158.72l-6.485334 5.034667-293.034666 247.637333-281.856-254.08 0.725333 0.64A146.218667 146.218667 0 0 1 175.445333 360.533333c13.781333-52.906667 55.466667-92.416 106.666667-102.144 48.725333-9.258667 98.56 9.856 129.792 50.090667l5.034667 6.784 25.429333 35.968a85.333333 85.333333 0 0 0 139.306667-0.085333l26.581333-37.546667c31.573333-44.629333 85.077333-65.792 136.874667-54.613333 52.224 11.306667 93.568 53.589333 105.045333 108.373333 11.136 53.034667-7.850667 107.776-48.341333 141.226667z" fill="#ea986c" p-id="2894"></path></svg>