<?xml version="1.0" standalone="no"?><!DOCTYPE svg PUBLIC "-//W3C//DTD SVG 1.1//EN" "http://www.w3.org/Graphics/SVG/1.1/DTD/svg11.dtd"><svg t="1688836053493" class="icon" viewBox="0 0 1024 1024" version="1.1" xmlns="http://www.w3.org/2000/svg" p-id="2483" width="128" height="128" xmlns:xlink="http://www.w3.org/1999/xlink"><path d="M384 128V42.666667H128a85.333333 85.333333 0 0 0-85.333333 85.333333v256h85.333333V128h256z m597.333333 768v-256h-85.333333v256h-256v85.333333h256a85.333333 85.333333 0 0 0 85.333333-85.333333zM138.794667 817.194667l-0.128-171.861334a48 48 0 0 0-96 0l0.128 272.341334c0.896 18.261333 1.706667 29.525333 18.048 45.482666 16.384 15.957333 43.946667 18.133333 43.946666 18.133334L378.709333 981.333333a48 48 0 0 0 0-96H206.421333l188.245334-188.245333a48 48 0 0 0-67.84-67.882667l-188.032 187.989334zM885.333333 378.666667l-0.128-171.861334-187.989333 187.989334a48 48 0 0 1-67.882667-67.84l188.245334-188.288h-172.245334a48 48 0 0 1 0-96h275.541334s29.184 1.194667 44.970666 19.797333 15.36 43.861333 15.36 43.861333L981.333333 378.666667a48 48 0 0 1-96 0z" fill="#6fa676" p-id="2484"></path></svg>