<?xml version="1.0" standalone="no"?><!DOCTYPE svg PUBLIC "-//W3C//DTD SVG 1.1//EN" "http://www.w3.org/Graphics/SVG/1.1/DTD/svg11.dtd"><svg t="1688835905532" class="icon" viewBox="0 0 1024 1024" version="1.1" xmlns="http://www.w3.org/2000/svg" p-id="2300" id="mx_n_1688835905533" width="128" height="128" xmlns:xlink="http://www.w3.org/1999/xlink"><path d="M661.589333 351.36a117.76 117.76 0 1 0 0 235.562667 117.76 117.76 0 0 0 0-235.562667z m-32.426666 117.76a32.426667 32.426667 0 1 1 64.853333 0 32.426667 32.426667 0 0 1-64.853333 0z" fill="#a286b1" p-id="2301"></path><path d="M320.298667 511.829333h-64v-85.333333h64v-64h85.333333v64h64v85.333333h-64v64h-85.333333v-64z" fill="#a286b1" p-id="2302"></path><path d="M309.077333 180.138667a192 192 0 0 0-190.293333 166.272l-48.938667 361.941333a119.466667 119.466667 0 0 0 118.4 135.509333h75.904a106.666667 106.666667 0 0 0 94.976-58.24l29.781334-58.368a21.333333 21.333333 0 0 1 19.029333-11.648h213.12a21.333333 21.333333 0 0 1 19.2 12.16l26.453333 55.381334a106.666667 106.666667 0 0 0 96.256 60.714666h72.789334a119.466667 119.466667 0 0 0 118.4-135.424L905.386667 346.453333a192 192 0 0 0-190.293334-166.357333H309.077333zM203.349333 357.845333a106.666667 106.666667 0 0 1 105.728-92.373333h406.016a106.666667 106.666667 0 0 1 105.685334 92.416l48.810666 361.941333a34.133333 34.133333 0 0 1-33.834666 38.698667h-72.789334a21.333333 21.333333 0 0 1-19.2-12.16l-26.453333-55.381333a106.666667 106.666667 0 0 0-96.256-60.714667H407.893333a106.666667 106.666667 0 0 0-95.018666 58.197333l-29.781334 58.410667a21.333333 21.333333 0 0 1-19.029333 11.648H188.245333a34.133333 34.133333 0 0 1-33.834666-38.698667l48.938666-361.984z" fill="#a286b1" p-id="2303"></path></svg>