<?xml version="1.0" standalone="no"?><!DOCTYPE svg PUBLIC "-//W3C//DTD SVG 1.1//EN" "http://www.w3.org/Graphics/SVG/1.1/DTD/svg11.dtd"><svg t="1688836483555" class="icon" viewBox="0 0 1024 1024" version="1.1" xmlns="http://www.w3.org/2000/svg" p-id="3323" xmlns:xlink="http://www.w3.org/1999/xlink" width="128" height="128"><path d="M170.666667 647.253333a128.042667 128.042667 0 1 0 85.333333 0V256c0-71.850667 49.109333-128 106.666667-128S469.333333 184.149333 469.333333 256v512c0 116.650667 84.608 213.333333 192 213.333333s192-96.682667 192-213.333333V376.746667a128.042667 128.042667 0 1 0-85.333333 0V768c0 71.850667-49.109333 128-106.666667 128S554.666667 839.850667 554.666667 768V256c0-116.650667-84.608-213.333333-192-213.333333S170.666667 139.349333 170.666667 256v391.253333zM768 256a42.666667 42.666667 0 1 0 85.333333 0 42.666667 42.666667 0 0 0-85.333333 0zM213.333333 810.666667a42.666667 42.666667 0 1 1 0-85.333334 42.666667 42.666667 0 0 1 0 85.333334z" fill="#efb234" p-id="3324"></path></svg>