<?xml version="1.0" standalone="no"?><!DOCTYPE svg PUBLIC "-//W3C//DTD SVG 1.1//EN" "http://www.w3.org/Graphics/SVG/1.1/DTD/svg11.dtd"><svg t="1688836408991" class="icon" viewBox="0 0 1024 1024" version="1.1" xmlns="http://www.w3.org/2000/svg" p-id="3085" xmlns:xlink="http://www.w3.org/1999/xlink" width="128" height="128"><path d="M512 85.406074a42.66336 42.66336 0 1 0 0 85.326721 42.66336 42.66336 0 0 0 0-85.326721z m-125.771586 18.857206a127.990081 127.990081 0 0 1 251.543172 0C812.008749 157.933787 938.633603 320.182546 938.633603 512.039677c0 37.07446-4.69297 72.997009-13.609612 107.298351a127.990081 127.990081 0 1 1-135.669486 216.900524A424.927068 424.927068 0 0 1 512 938.673279a424.927068 424.927068 0 0 1-277.311842-102.434727 127.990081 127.990081 0 0 1-135.669485-216.900524A427.35888 427.35888 0 0 1 85.323734 512.039677c0-191.857131 126.624853-354.10589 300.862017-407.776397z m13.524285 85.32672a341.434872 341.434872 0 0 0-218.180424 408.245694A127.990081 127.990081 0 0 1 290.150527 771.432907 339.984318 339.984318 0 0 0 512 853.346559a339.984318 339.984318 0 0 0 221.849473-81.913652 127.990081 127.990081 0 0 1 108.578252-173.597213 341.434872 341.434872 0 0 0-218.180424-408.203031 127.990081 127.990081 0 0 1-224.494602 0zM853.306882 682.693118a42.66336 42.66336 0 1 0 0 85.32672 42.66336 42.66336 0 0 0 0-85.32672zM128.029758 725.356478a42.66336 42.66336 0 1 1 85.32672 0 42.66336 42.66336 0 0 1-85.32672 0z" fill="#eeb173" p-id="3086"></path></svg>