<?xml version="1.0" standalone="no"?><!DOCTYPE svg PUBLIC "-//W3C//DTD SVG 1.1//EN" "http://www.w3.org/Graphics/SVG/1.1/DTD/svg11.dtd"><svg t="1720814036304" class="icon" viewBox="0 0 1024 1024" version="1.1" xmlns="http://www.w3.org/2000/svg" p-id="2722" xmlns:xlink="http://www.w3.org/1999/xlink" width="128" height="128"><path d="M924.175754 936.644923H821.169231c-27.183262 0-49.230769-22.047508-49.230769-49.230769 0-27.1872 22.047508-49.230769 49.230769-49.230769h93.034338V185.816615H133.431138v652.36677H651.815385c27.183262 0 49.230769 22.043569 49.230769 49.230769 0 27.183262-22.047508 49.230769-49.230769 49.230769H123.455015c-48.7936 0-88.485415-39.691815-88.485415-88.485415V175.836554c0-48.789662 39.695754-88.481477 88.485415-88.481477h800.720739c48.7936 0 88.489354 39.691815 88.489354 88.481477v672.330831c0 48.785723-39.695754 88.477538-88.489354 88.477538z" p-id="2723"></path><path d="M525.784615 736.496246A49.230769 49.230769 0 0 1 476.553846 687.261538v-176.167384l-15.147323 24.686277A49.234708 49.234708 0 0 1 419.446154 559.261538h-220.553846v-98.461538h193.004307l91.927631-149.8112A49.238646 49.238646 0 0 1 575.015385 336.738462v183.2448l23.6032-36.623754a49.230769 49.230769 0 0 1 41.381415-22.563446h204.8v98.461538h-177.963323l-99.678523 154.667323a49.207138 49.207138 0 0 1-41.373539 22.571323z" p-id="2724"></path></svg>