<?xml version="1.0" standalone="no"?><!DOCTYPE svg PUBLIC "-//W3C//DTD SVG 1.1//EN" "http://www.w3.org/Graphics/SVG/1.1/DTD/svg11.dtd"><svg t="1720813654457" class="icon" viewBox="0 0 1024 1024" version="1.1" xmlns="http://www.w3.org/2000/svg" p-id="1167" width="128" height="128" data-spm-anchor-id="a313x.collections_detail.0.i3.26d93a81bfgxLL" xmlns:xlink="http://www.w3.org/1999/xlink"><path d="M837.90368 631.104a51.168 51.168 0 0 1-50.144-61.504 283.84 283.84 0 0 0 5.824-57.472c0-155.296-126.304-281.6-281.6-281.6-115.904 0-221.728 72.704-263.168 181.024a51.2 51.2 0 1 1-95.616-36.512C209.61568 227.2 353.83968 128 511.98368 128c211.744 0 384 172.256 384 384 0 26.336-2.656 52.672-8.032 78.208a51.2 51.2 0 0 1-50.048 40.896z" fill="#a287c0" p-id="1168" data-spm-anchor-id="a313x.collections_detail.0.i9.26d93a81bfgxLL" class="selected"></path><path d="M679.27968 550.24a51.2 51.2 0 0 1-50.848-46.272 124.384 124.384 0 0 0-89.44-107.2 51.2 51.2 0 0 1 27.936-98.496c88.896 25.216 154.624 103.904 163.456 195.84 2.72 28.192-17.888 53.152-46.08 55.904-1.792 0.128-3.392 0.224-5.024 0.224zM512.01568 896c-190.08 0-353.536-141.76-380.224-329.728a51.2 51.2 0 0 1 101.344-14.304C252.75168 689.728 372.49568 793.6 512.01568 793.6a281.824 281.824 0 0 0 212.896-97.216 51.264 51.264 0 0 1 72.256-5.152 51.2 51.2 0 0 1 5.152 72.256A384.32 384.32 0 0 1 511.98368 896z" fill="#a287c0" p-id="1169" data-spm-anchor-id="a313x.collections_detail.0.i4.26d93a81bfgxLL" class="selected"></path><path d="M768.39968 771.616c-96.64 0-209.344-18.56-317.696-50.24C198.54368 647.552-35.66432 500.96 4.52768 363.648 17.13568 320.512 60.65568 266.56 196.49568 254.432c15.136-1.376 31.04-2.176 47.424-2.4 28.064-0.8 51.52 22.208 51.872 50.496a51.2 51.2 0 0 1-50.496 51.872c-13.856 0.256-27.04 0.832-39.616 1.952-69.056 6.208-99.648 25.312-102.848 35.968-9.408 32.192 110.976 152.896 376.768 230.656 265.792 77.76 432.192 40.896 441.6 8.576 3.328-11.456-15.68-52.672-96.192-106.496a51.2 51.2 0 0 1 56.928-85.12c139.584 93.472 151.84 171.456 137.504 220.48-22.88 78.336-122.752 111.2-251.008 111.2z" fill="#a287c0" p-id="1170" data-spm-anchor-id="a313x.collections_detail.0.i8.26d93a81bfgxLL" class="selected"></path></svg>