<?xml version="1.0" standalone="no"?><!DOCTYPE svg PUBLIC "-//W3C//DTD SVG 1.1//EN" "http://www.w3.org/Graphics/SVG/1.1/DTD/svg11.dtd"><svg t="1720813997005" class="icon" viewBox="0 0 1024 1024" version="1.1" xmlns="http://www.w3.org/2000/svg" p-id="2239" xmlns:xlink="http://www.w3.org/1999/xlink" width="128" height="128"><path d="M975.521011 770.585532l-47.305415-82.784476c-14.773234-25.861789-47.728247-34.844813-73.585722-20.058635-25.861789 14.777549-34.844813 47.728247-20.058634 73.585721l44.000421 77.011524H143.102763a39.0041 39.0041 0 0 1-2.239284-0.064719c0.245933-0.629933 0.535012-1.315957 0.871552-2.062385l36.216859-79.220606c0.435776-0.953529 0.768001-1.911373 1.143373-2.873532a53.630637 53.630637 0 0 0 8.249539-28.567051V381.359996c0-118.095267 111.291123-214.16875 248.090237-214.16875h139.422398c136.794799 0 248.090236 96.077798 248.090236 214.16875v171.626668c0 29.779458 24.148888 53.93266 53.93266 53.93266 29.779458 0 53.93266-24.153202 53.93266-53.93266V381.359996c0-177.572204-159.68382-322.03407-355.955556-322.03407h-139.422398c-196.276051 0-355.955556 144.461866-355.955557 322.03407v311.601337l-35.845803 78.413773c-17.185103 37.593221-15.843258 76.593006 3.68468 106.998083 19.527938 30.396447 54.441784 47.831798 95.780089 47.831797h742.113402c42.356554 0 76.994265-17.806407 95.012089-48.867304 18.030767-31.060898 16.313551-69.965761-4.702928-106.75215z" p-id="2240"></path><path d="M624.466855 720.652518a53.803222 53.803222 0 0 1-25.089474-6.204413l-85.217917-44.807254-85.222232 44.807254a53.919716 53.919716 0 0 1-78.254133-56.849339l16.27472-94.895594-68.947513-67.208723a53.93266 53.93266 0 0 1 29.887323-91.987545l95.283909-13.845593 42.611116-86.339716a53.924031 53.924031 0 0 1 96.72499 0l42.611116 86.339716 95.283909 13.845593a53.93266 53.93266 0 1 1 29.891638 91.987545l-68.943198 67.217353 16.274719 94.886964a53.962862 53.962862 0 0 1-21.465199 52.759086 53.906772 53.906772 0 0 1-31.703774 10.294666z m-172.912423-226.115913l11.002263 10.721812a53.941289 53.941289 0 0 1 15.511033 47.736877l-2.597397 15.127032 13.59103-7.140684a53.889514 53.889514 0 0 1 50.191891 0l13.586715 7.140684-2.597396-15.127032a53.93266 53.93266 0 0 1 15.511033-47.736877l11.002262-10.721812-15.196066-2.209082a53.924031 53.924031 0 0 1-40.604821-29.503322l-6.795515-13.76793-6.795515 13.76793a53.93266 53.93266 0 0 1-40.604822 29.503322l-15.204695 2.209082z" p-id="2241"></path></svg>