<?xml version="1.0" standalone="no"?><!DOCTYPE svg PUBLIC "-//W3C//DTD SVG 1.1//EN" "http://www.w3.org/Graphics/SVG/1.1/DTD/svg11.dtd"><svg t="1720814006782" class="icon" viewBox="0 0 1024 1024" version="1.1" xmlns="http://www.w3.org/2000/svg" p-id="2400" xmlns:xlink="http://www.w3.org/1999/xlink" width="128" height="128"><path d="M913.51571 788.439399c-7.947517 0-16.002899-1.760362-23.61819-5.479558L632.897608 657.546991c-26.772172-13.056018-37.8823-45.350895-24.817653-72.118753 13.056018-26.772172 45.363839-37.873671 72.118753-24.817653L937.19862 686.023435c26.772172 13.056018 37.8823 45.346581 24.817652 72.118753a53.928345 53.928345 0 0 1-48.500562 30.297211z" p-id="2401"></path><path d="M959.267864 266.837229c-13.716154-26.435633-46.261278-36.764816-72.70554-23.048662l-401.082092 207.98591-91.357611-47.374448c58.074688-37.964278 96.55672-103.520505 96.55672-177.934632 0-117.158996-95.318426-212.477422-212.477422-212.477422S65.724497 109.302086 65.724497 226.465397c0 81.593643 46.256964 152.54745 113.897149 188.138691 0.375371 0.202787 0.72054 0.444405 1.100226 0.642877l187.599364 97.281575-187.599364 97.281575c-0.366742 0.185528-0.703282 0.427147-1.06571 0.625619-68.831018 35.194297-116.093287 106.790981-116.093286 189.26049 0 117.158996 95.318426 212.468793 212.477422 212.468793s212.477422-95.309797 212.477422-212.468793c0-74.405498-38.473402-139.95741-96.543776-177.926002l544.240944-282.223138c26.444262-13.716154 36.764816-46.269908 23.052976-72.709855zM278.201919 121.853295c57.682059 0 104.612102 46.925729 104.612102 104.612102S335.883977 331.077499 278.201919 331.077499 173.589817 284.147455 173.589817 226.465397c0-57.682059 46.930043-104.612102 104.612102-104.612102z m-2.157307 782.446402c-57.682059 0-104.612102-46.930043-104.612102-104.607787 0-57.682059 46.930043-104.612102 104.612102-104.612102s104.612102 46.930043 104.612102 104.612102c0 57.677744-46.930043 104.607787-104.612102 104.607787z" p-id="2402"></path></svg>