<?xml version="1.0" standalone="no"?><!DOCTYPE svg PUBLIC "-//W3C//DTD SVG 1.1//EN" "http://www.w3.org/Graphics/SVG/1.1/DTD/svg11.dtd"><svg t="1720814073714" class="icon" viewBox="0 0 1024 1024" version="1.1" xmlns="http://www.w3.org/2000/svg" p-id="3200" xmlns:xlink="http://www.w3.org/1999/xlink" width="128" height="128"><path d="M511.854277 986.147446C250.407385 986.139569 37.706831 773.435077 37.706831 511.996062 37.706831 250.549169 250.411323 37.848615 511.854277 37.848615c261.446892 0 474.147446 212.700554 474.147446 474.147447 0 110.658954-38.939569 218.348308-109.638892 303.253661-17.400123 20.893538-48.450954 23.717415-69.332677 6.325169-20.897477-17.400123-23.725292-48.447015-6.325169-69.332677 56.000985-67.245292 86.847015-152.568123 86.847015-240.246153 0-207.1552-168.530708-375.685908-375.689846-375.685908-207.1552 0-375.685908 168.534646-375.685908 375.685908 0 207.151262 168.534646 375.681969 375.685908 375.689846 60.156062 0 117.614277-13.776738 170.771692-40.952123 24.205785-12.3904 53.870277-2.788431 66.244923 21.421292 12.374646 24.205785 2.784492 53.870277-21.421292 66.240985-66.225231 33.858954-140.780308 51.751385-215.6032 51.751384z" p-id="3201"></path><path d="M741.230277 323.745477c-18.432-19.987692-49.585231-21.251938-69.565046-2.819939l-94.314339 86.96517a136.258954 136.258954 0 0 0-62.932677-15.352123c-75.6224 0-137.145108 61.526646-137.145107 137.152984 0 75.6224 61.526646 137.152985 137.145107 137.152985 75.630277 0 137.152985-61.530585 137.152985-137.152985 0-16.962954-3.115323-33.209108-8.774892-48.218584l95.610092-88.162462c19.991631-18.428062 21.255877-49.573415 2.823877-69.565046z m-226.816 244.637538c-21.334646 0-38.687508-17.3568-38.687508-38.691446s17.3568-38.691446 38.687508-38.691446a38.585108 38.585108 0 0 1 29.3376 13.536492c0.212677 0.240246 0.393846 0.496246 0.606523 0.736493l0.1024 0.098461a38.506338 38.506338 0 0 1 8.633108 24.32c0.015754 21.334646-17.348923 38.691446-38.679631 38.691446zM782.655015 588.217108c-27.183262 0-49.230769-22.043569-49.230769-49.23077a204.760615 204.760615 0 0 0-7.723323-55.9104c-7.408246-26.1632 7.794215-53.374031 33.953477-60.786215 26.139569-7.400369 53.377969 7.790277 60.786215 33.949539a303.403323 303.403323 0 0 1 11.44517 82.751015c0 27.183262-22.043569 49.226831-49.23077 49.226831z" p-id="3202"></path><path d="M251.120246 568.532677c-27.1872 0-49.230769-22.043569-49.230769-49.230769 0-167.171938 136.006892-303.178831 303.178831-303.178831 36.698585 0 72.605538 6.5024 106.712615 19.326031 25.450338 9.566523 38.317292 37.954954 28.754708 63.405292-9.570462 25.450338-37.966769 38.321231-63.409231 28.754708a204.063508 204.063508 0 0 0-72.058092-13.024493c-112.880246 0-204.717292 91.837046-204.717293 204.717293 0 27.1872-22.039631 49.230769-49.230769 49.230769z" p-id="3203"></path></svg>