<?xml version="1.0" standalone="no"?><!DOCTYPE svg PUBLIC "-//W3C//DTD SVG 1.1//EN" "http://www.w3.org/Graphics/SVG/1.1/DTD/svg11.dtd"><svg t="1733973945302" class="icon" viewBox="0 0 1024 1024" version="1.1" xmlns="http://www.w3.org/2000/svg" p-id="1233" width="18" height="18" xmlns:xlink="http://www.w3.org/1999/xlink"><path d="M490.24 158.72a49.066667 49.066667 0 0 1 64.085333 19.157333l1.664 3.072L643.84 358.826667l196.352 28.501333a49.066667 49.066667 0 0 1 29.738667 81.066667l-2.56 2.645333L725.333333 609.237333l33.536 195.370667a49.066667 49.066667 0 0 1-68.010666 53.248l-3.157334-1.493333L512 764.117333 336.298667 856.32a49.066667 49.066667 0 0 1-71.637334-48.426667l0.469334-3.328L298.666667 609.28l-142.037334-138.24a49.066667 49.066667 0 0 1 23.893334-83.157333l3.285333-0.597334L380.16 358.826667l87.850667-177.792a49.066667 49.066667 0 0 1 22.272-22.272z" p-id="1234" fill="#bfbfbf"></path></svg>