<?xml version="1.0" standalone="no"?><!DOCTYPE svg PUBLIC "-//W3C//DTD SVG 1.1//EN" "http://www.w3.org/Graphics/SVG/1.1/DTD/svg11.dtd"><svg t="1720814017638" class="icon" viewBox="0 0 1024 1024" version="1.1" xmlns="http://www.w3.org/2000/svg" p-id="2561" xmlns:xlink="http://www.w3.org/1999/xlink" width="128" height="128"><path d="M777.350845 460.226804h-526.382762c-113.004024 0-204.944108-91.940084-204.944108-204.944108v-4.314613c0-113.004024 91.940084-204.944108 204.944108-204.944108h526.382762c113.004024 0 204.944108 91.940084 204.944108 204.944108v4.314613c0 113.004024-91.940084 204.944108-204.944108 204.944108z m-526.382762-306.337509c-53.531401 0-97.078788 43.547387-97.078788 97.078788v4.314613c0 53.531401 43.547387 97.078788 97.078788 97.078788h526.382762c53.527086 0 97.078788-43.547387 97.078788-97.078788v-4.314613c0-53.531401-43.551702-97.078788-97.078788-97.078788h-526.382762zM777.350845 973.665727h-526.382762c-113.004024 0-204.944108-91.940084-204.944108-204.944108v-4.314613c0-112.999709 91.940084-204.944108 204.944108-204.944108h526.382762c113.004024 0 204.944108 91.944399 204.944108 204.944108v4.314613c0 113.004024-91.940084 204.944108-204.944108 204.944108z m-526.382762-306.337509c-53.531401 0-97.078788 43.551702-97.078788 97.078788v4.314613c0 53.527086 43.547387 97.078788 97.078788 97.078788h526.382762c53.527086 0 97.078788-43.551702 97.078788-97.078788v-4.314613c0-53.527086-43.551702-97.078788-97.078788-97.078788h-526.382762z" p-id="2562"></path><path d="M436.496433 296.271517h-168.269899c-23.829607 0-43.146128-19.316522-43.146128-43.146128s19.316522-43.146128 43.146128-43.146128h168.269899c23.829607 0 43.146128 19.316522 43.146128 43.146128s-19.316522 43.146128-43.146128 43.146128zM768.721619 809.710441h-189.842963c-23.820977 0-43.146128-19.320836-43.146128-43.146128 0-23.820977 19.325151-43.146128 43.146128-43.146128h189.842963c23.820977 0 43.146128 19.325151 43.146128 43.146128 0 23.825292-19.325151 43.146128-43.146128 43.146128z" p-id="2563"></path></svg>