<?xml version="1.0" standalone="no"?><!DOCTYPE svg PUBLIC "-//W3C//DTD SVG 1.1//EN" "http://www.w3.org/Graphics/SVG/1.1/DTD/svg11.dtd"><svg t="1720814046888" class="icon" viewBox="0 0 1024 1024" version="1.1" xmlns="http://www.w3.org/2000/svg" p-id="2881" fill="#E9A8C1" xmlns:xlink="http://www.w3.org/1999/xlink" width="128" height="128"><path d="M827.223454 1002.426936H195.240544c-96.185663 0-174.439796-78.254132-174.439796-174.439796V196.008545C20.800748 99.822882 99.054881 21.573064 195.240544 21.573064h631.98291c96.194292 0 174.448425 78.249818 174.448425 174.435481v631.978595c-0.012944 96.185663-78.262762 174.439796-174.448425 174.439796zM195.240544 129.438384c-36.708726 0-66.574476 29.861435-66.574476 66.570161v631.978595c0 36.708726 29.86575 66.574476 66.574476 66.574476h631.98291c36.708726 0 66.57879-29.86575 66.57879-66.574476l0.004315-631.978595c0-36.708726-29.86575-66.570161-66.583105-66.570161H195.240544z" p-id="2882"></path><path d="M323.777174 453.012771a53.924031 53.924031 0 0 1-38.136863-15.800112L197.272727 348.845074c-21.06394-21.059625-21.059625-55.209785 0-76.26941s55.209785-21.059625 76.26941 0l50.230722 50.235037 122.535004-122.539319c21.059625-21.059625 55.209785-21.06394 76.26941 0 21.06394 21.059625 21.06394 55.209785 0.004315 76.273726l-160.671866 160.67618a53.93266 53.93266 0 0 1-38.132548 15.791483zM341.618098 824.569967c-84.001197 0-152.344663-68.343467-152.344664-152.348978 0-84.001197 68.339152-152.344663 152.344664-152.344663s152.344663 68.343467 152.344663 152.344663c0 84.005511-68.343467 152.348978-152.344663 152.348978z m0-196.824007c-24.524259 0-44.479343 19.955084-44.479344 44.479344 0 24.532888 19.955084 44.487973 44.479344 44.487972 24.528574 0 44.479343-19.955084 44.479343-44.487972 0-24.524259-19.955084-44.479343-44.479343-44.479344zM781.665457 434.339127h-172.584512c-29.779458 0-53.93266-24.148888-53.93266-53.93266s24.153202-53.93266 53.93266-53.93266h172.584512c29.779458 0 53.93266 24.148888 53.93266 53.93266s-24.153202 53.93266-53.93266 53.93266zM742.833942 726.153649h-133.752997c-29.779458 0-53.93266-24.153202-53.93266-53.93266 0-29.783772 24.153202-53.93266 53.93266-53.93266h133.752997c29.779458 0 53.93266 24.148888 53.93266 53.93266s-24.153202 53.93266-53.93266 53.93266z" p-id="2883"></path></svg>