<?xml version="1.0" standalone="no"?><!DOCTYPE svg PUBLIC "-//W3C//DTD SVG 1.1//EN" "http://www.w3.org/Graphics/SVG/1.1/DTD/svg11.dtd"><svg t="1720813879525" class="icon" viewBox="0 0 1024 1024" version="1.1" xmlns="http://www.w3.org/2000/svg" p-id="1699" xmlns:xlink="http://www.w3.org/1999/xlink" width="128" height="128"><path d="M1021.99 249.71c0-0.31-0.01-0.61-0.02-0.92a49.74 49.74 0 0 0-12.44-31.85L879.99 41.21c-16.58-22.49-43.16-35.92-71.1-35.92H215.11c-27.94 0-54.52 13.43-71.1 35.92L14.47 216.94c-7.51 8.53-12.16 19.65-12.44 31.84-0.01 0.31-0.02 0.62-0.02 0.93 0 0.08-0.01 0.16-0.01 0.24V968.7c0 27.61 22.39 50 50 50h920c27.61 0 50-22.39 50-50V249.96c0-0.08-0.01-0.17-0.01-0.25zM221.01 105.29h581.98l69.79 94.67H151.22l69.79-94.67zM102 918.71V300.29h820v618.42H102z" fill="#231815" p-id="1700"></path><path d="M837.35 641.98c0.27-0.31 0.54-0.62 0.8-0.93 0.32-0.39 0.62-0.79 0.93-1.18 0.19-0.24 0.38-0.48 0.57-0.73 0.32-0.43 0.63-0.88 0.94-1.32 0.15-0.22 0.31-0.44 0.46-0.66 0.31-0.46 0.6-0.92 0.89-1.38 0.14-0.23 0.29-0.45 0.42-0.68 0.27-0.46 0.54-0.92 0.79-1.38 0.14-0.25 0.29-0.5 0.42-0.76 0.23-0.44 0.46-0.88 0.68-1.32 0.15-0.29 0.3-0.59 0.44-0.89 0.19-0.41 0.37-0.81 0.55-1.22 0.15-0.35 0.31-0.7 0.46-1.05 0.15-0.36 0.29-0.73 0.43-1.1 0.16-0.4 0.31-0.81 0.46-1.22 0.12-0.32 0.22-0.65 0.33-0.98 0.15-0.46 0.3-0.91 0.44-1.38 0.09-0.29 0.17-0.58 0.25-0.87 0.14-0.5 0.28-0.99 0.4-1.5 0.07-0.27 0.13-0.55 0.19-0.82 0.12-0.52 0.24-1.04 0.34-1.56 0.06-0.28 0.1-0.57 0.15-0.85 0.09-0.51 0.18-1.03 0.26-1.54 0.05-0.33 0.08-0.66 0.13-0.99 0.06-0.47 0.12-0.95 0.17-1.42 0.04-0.44 0.07-0.89 0.1-1.33 0.03-0.37 0.06-0.73 0.08-1.11 0.08-1.65 0.08-3.31 0-4.96-0.02-0.37-0.05-0.74-0.08-1.11-0.03-0.44-0.06-0.89-0.1-1.33-0.05-0.48-0.11-0.95-0.17-1.42-0.04-0.33-0.08-0.66-0.13-0.99-0.08-0.52-0.17-1.03-0.26-1.54l-0.15-0.85c-0.1-0.52-0.22-1.04-0.34-1.56-0.06-0.27-0.12-0.55-0.19-0.82-0.12-0.5-0.26-1-0.4-1.5-0.08-0.29-0.16-0.58-0.25-0.87-0.14-0.46-0.29-0.92-0.44-1.38-0.11-0.33-0.21-0.65-0.33-0.98-0.15-0.41-0.3-0.81-0.46-1.22-0.14-0.37-0.28-0.74-0.43-1.1-0.15-0.35-0.3-0.7-0.46-1.05-0.18-0.41-0.36-0.82-0.55-1.22-0.14-0.3-0.29-0.59-0.44-0.89-0.22-0.44-0.44-0.89-0.68-1.32-0.14-0.25-0.28-0.5-0.42-0.76-0.26-0.46-0.52-0.92-0.79-1.38-0.14-0.23-0.28-0.45-0.42-0.68-0.29-0.46-0.58-0.93-0.89-1.38-0.15-0.22-0.31-0.44-0.46-0.66-0.31-0.44-0.61-0.88-0.94-1.32-0.18-0.25-0.38-0.49-0.57-0.73-0.31-0.4-0.61-0.79-0.93-1.18-0.26-0.32-0.53-0.62-0.8-0.93-0.26-0.31-0.52-0.61-0.79-0.91-0.53-0.58-1.07-1.15-1.62-1.7-0.03-0.03-0.05-0.06-0.08-0.09L699.33 438.45c-19.53-19.53-51.18-19.53-70.71 0-19.53 19.53-19.53 51.18 0 70.71l50.17 50.17H224.5c-27.61 0-50 22.39-50 50s22.39 50 50 50h454.29l-50.17 50.17c-19.53 19.53-19.53 51.18 0 70.71 9.76 9.76 22.56 14.64 35.36 14.64s25.59-4.88 35.36-14.64l135.53-135.53c0.03-0.03 0.05-0.06 0.08-0.09 0.55-0.56 1.09-1.12 1.62-1.7 0.26-0.29 0.52-0.6 0.78-0.91z" fill="#231815" p-id="1701"></path></svg>